<?xml version="1.0" encoding="UTF-8" standalone="yes"?>
<!DOCTYPE svg PUBLIC "-//W3C//DTD SVG 1.1//EN" "http://www.w3.org/Graphics/SVG/1.1/DTD/svg11.dtd">

<svg width="400" height="400" viewBox="0 0 400 400" xmlns="http://www.w3.org/2000/svg" xmlns:xlink="http://www.w3.org/1999/xlink" version="1.1" baseProfile="full">
    <g transform="scale(1,-1) translate(0,-400)">
        <path d="M 46.903011 70.523034 L 16.978272 70.523034 C 8.153685 70.523034 1.000000 62.486227 1.000000 52.571901 L 1.000000 18.951133 C 1.000000 9.036827 8.153685 1.000000 16.978272 1.000000 L 46.903011 1.000000 C 55.727601 1.000000 62.881287 9.036827 62.881287 18.951133 L 62.881287 52.571901 C 62.881287 62.486227 55.727601 70.523034 46.903011 70.523034 Z" transform="scale(1.000000,1.000000) translate(23.999929,61.731081)" fill="#08b5d4" opacity="1.000000"></path>
        <path d="M 48.601900 1.583000 L 49.461900 1.608500 L 50.311000 1.682100 L 51.147500 1.802700 L 51.970800 1.968800 L 52.779100 2.179500 L 53.571800 2.433400 L 54.347400 2.729300 L 55.105000 3.065900 L 55.843300 3.441900 L 56.561600 3.856200 L 57.258700 4.307600 L 57.933500 4.794600 L 58.585200 5.316200 L 59.212700 5.871200 L 59.814700 6.458300 L 60.390600 7.076300 L 60.939400 7.724100 L 61.460000 8.400400 L 61.951500 9.104200 L 62.412600 9.834200 L 62.842700 10.589300 L 63.240700 11.368300 L 63.605400 12.170000 L 63.936000 12.993400 L 64.231400 13.837200 L 64.490600 14.700200 L 64.712600 15.581300 L 64.896400 16.479300 L 65.041000 17.393200 L 65.145300 18.321500 L 65.208400 19.263300 L 65.229400 20.202200 L 65.229200 53.837900 L 65.207000 54.791800 L 65.142600 55.733400 L 65.037000 56.661700 L 64.891000 57.575200 L 64.705900 58.473000 L 64.482600 59.353700 L 64.222100 60.216400 L 63.925400 61.059800 L 63.593500 61.882700 L 63.227500 62.684000 L 62.828200 63.462400 L 62.396900 64.217000 L 61.934400 64.946500 L 61.441600 65.649600 L 60.919700 66.325200 L 60.369600 66.972300 L 59.792300 67.589600 L 59.188800 68.175900 L 58.560000 68.730000 L 57.907000 69.250400 L 57.230700 69.736600 L 56.532300 70.186700 L 55.812700 70.599600 L 55.073000 70.974300 L 54.314200 71.309400 L 53.537400 71.603600 L 52.743800 71.855700 L 51.934400 72.064500 L 51.110600 72.228700 L 50.273400 72.347200 L 49.424100 72.418600 L 48.601900 72.442000 L 48.582900 72.442300 L 18.639100 72.442000 L 17.779000 72.416500 L 16.930000 72.342900 L 16.093300 72.222300 L 15.270200 72.056200 L 14.461700 71.845500 L 13.669200 71.591600 L 12.893600 71.295700 L 12.136000 70.959100 L 11.397600 70.583100 L 10.679300 70.168800 L 9.982200 69.717400 L 9.307400 69.230300 L 8.655800 68.708800 L 8.028400 68.153900 L 7.426200 67.566700 L 6.850300 66.948700 L 6.301500 66.300900 L 5.780900 65.624600 L 5.289500 64.920800 L 4.828300 64.190800 L 4.398200 63.435700 L 4.000300 62.656800 L 3.635500 61.855000 L 3.304900 61.031600 L 3.009500 60.187800 L 2.750300 59.324800 L 2.528300 58.443700 L 2.344500 57.545600 L 2.200000 56.631800 L 2.095700 55.703500 L 2.032600 54.761700 L 2.011600 53.822900 L 2.011800 20.187100 L 2.034000 19.233200 L 2.098400 18.291600 L 2.204000 17.363400 L 2.349900 16.449800 L 2.535000 15.552000 L 2.758300 14.671300 L 3.018800 13.808600 L 3.315500 12.965200 L 3.647400 12.142200 L 4.013500 11.341000 L 4.412700 10.562600 L 4.844000 9.808000 L 5.306600 9.078500 L 5.799300 8.375400 L 6.321200 7.699800 L 6.871300 7.052600 L 7.448600 6.435500 L 8.052200 5.849100 L 8.681000 5.295100 L 9.333900 4.774600 L 10.010200 4.288400 L 10.708600 3.838300 L 11.428200 3.425400 L 12.168000 3.050700 L 12.926800 2.715600 L 13.703500 2.421400 L 14.497100 2.169300 L 15.306500 1.960500 L 16.130300 1.796300 L 16.967600 1.677800 L 17.816800 1.606400 L 18.658200 1.582700 Z M 18.658200 2.251000 L 17.835900 2.274400 L 17.024500 2.343700 L 16.224800 2.457900 L 15.438000 2.615700 L 14.664900 2.816200 L 13.906700 3.058100 L 13.164300 3.340300 L 12.438700 3.661700 L 11.730900 4.021200 L 11.041900 4.417600 L 10.372800 4.849800 L 9.724500 5.316800 L 9.098100 5.817200 L 8.494500 6.350100 L 7.914700 6.914400 L 7.359800 7.508700 L 6.830700 8.132200 L 6.328500 8.783500 L 5.854200 9.461600 L 5.408700 10.165400 L 4.993100 10.893800 L 4.608400 11.645500 L 4.255500 12.419500 L 3.935500 13.214700 L 3.649400 14.029900 L 3.398200 14.864000 L 3.182900 15.715800 L 3.004500 16.584300 L 2.864000 17.468300 L 2.762400 18.366700 L 2.700700 19.278400 L 2.679900 20.202200 L 2.679900 53.822900 L 2.700700 54.746700 L 2.762400 55.658400 L 2.864000 56.556800 L 3.004500 57.440800 L 3.182900 58.309300 L 3.398200 59.161100 L 3.649400 59.995200 L 3.935500 60.810400 L 4.255500 61.605600 L 4.608400 62.379600 L 4.993100 63.131300 L 5.408700 63.859700 L 5.854200 64.563500 L 6.328500 65.241600 L 6.830700 65.892900 L 7.359800 66.516400 L 7.914700 67.110800 L 8.494500 67.675000 L 9.098100 68.207900 L 9.724500 68.708300 L 10.372800 69.175300 L 11.041900 69.607500 L 11.730900 70.003900 L 12.438700 70.363400 L 13.164300 70.684800 L 13.906700 70.967000 L 14.664900 71.208900 L 15.438000 71.409400 L 16.224800 71.567200 L 17.024500 71.681400 L 17.835900 71.750700 L 18.658200 71.774100 L 48.582900 71.774100 L 49.405100 71.750700 L 50.216600 71.681400 L 51.016200 71.567200 L 51.803100 71.409400 L 52.576100 71.208900 L 53.334400 70.967000 L 54.076800 70.684800 L 54.802400 70.363400 L 55.510100 70.003900 L 56.199100 69.607500 L 56.868200 69.175300 L 57.516500 68.708300 L 58.143000 68.207900 L 58.746600 67.675000 L 59.326300 67.110800 L 59.881200 66.516400 L 60.410300 65.892900 L 60.912500 65.241600 L 61.386900 64.563500 L 61.832300 63.859700 L 62.247900 63.131300 L 62.632700 62.379600 L 62.985500 61.605600 L 63.305500 60.810400 L 63.591600 59.995200 L 63.842800 59.161100 L 64.058100 58.309300 L 64.236500 57.440800 L 64.377100 56.556800 L 64.478700 55.658400 L 64.540400 54.746700 L 64.561200 53.822900 L 64.561200 20.202200 L 64.540400 19.278400 L 64.478700 18.366700 L 64.377100 17.468300 L 64.236500 16.584300 L 64.058100 15.715800 L 63.842800 14.864000 L 63.591600 14.029900 L 63.305500 13.214700 L 62.985500 12.419500 L 62.632700 11.645500 L 62.247900 10.893800 L 61.832300 10.165400 L 61.386900 9.461600 L 60.912500 8.783500 L 60.410300 8.132200 L 59.881200 7.508700 L 59.326300 6.914400 L 58.746600 6.350100 L 58.143000 5.817200 L 57.516500 5.316800 L 56.868200 4.849800 L 56.199100 4.417600 L 55.510100 4.021200 L 54.802400 3.661700 L 54.076800 3.340300 L 53.334400 3.058100 L 52.576100 2.816200 L 51.803100 2.615700 L 51.016200 2.457900 L 50.216600 2.343700 L 49.405100 2.274400 L 48.582900 2.251000 Z" transform="scale(1.000000,1.000000) translate(22.320000,60.480000)" fill="#272729" opacity="1.000000"></path>
        <path d="M 7.879745 1.000000 C 11.679290 1.000000 14.759374 4.459246 14.759374 8.729189 C 14.759374 12.997803 11.679290 16.458378 7.879745 16.458378 C 4.080201 16.458378 1.000000 12.997803 1.000000 8.729189 C 1.000000 4.459246 4.080201 1.000000 7.879745 1.000000 Z" transform="scale(1.000000,1.000000) translate(48.050190,98.425550)" fill="#f2ece9" opacity="1.000000"></path>
        <path d="M 9.946200 1.606700 L 10.701800 1.740500 L 11.429700 1.954800 L 12.125800 2.245000 L 12.785700 2.606100 L 13.406200 3.033500 L 13.983400 3.522500 L 14.513900 4.068500 L 14.994800 4.667400 L 15.422300 5.314800 L 15.793300 6.006600 L 16.104200 6.738600 L 16.351500 7.506700 L 16.531800 8.306600 L 16.641500 9.134200 L 16.677000 9.984600 L 16.636100 10.834800 L 16.521000 11.661400 L 16.335500 12.460000 L 16.083000 13.226500 L 15.766900 13.956600 L 15.390800 14.646300 L 14.958000 15.291400 L 14.471900 15.887500 L 13.935800 16.430500 L 13.353100 16.915700 L 12.727200 17.338600 L 12.061900 17.694500 L 11.361100 17.978300 L 10.629300 18.185400 L 9.871100 18.311100 L 9.092000 18.351000 L 8.313500 18.302600 L 7.557900 18.168700 L 6.829900 17.954400 L 6.133900 17.664100 L 5.473800 17.302800 L 4.853600 16.875400 L 4.276200 16.386400 L 3.745600 15.840200 L 3.264900 15.241300 L 2.837300 14.593900 L 2.466300 13.902100 L 2.155400 13.170200 L 1.908000 12.402100 L 1.727700 11.602200 L 1.618100 10.774900 L 1.582500 9.924600 L 1.623500 9.074300 L 1.738500 8.247500 L 1.924000 7.448700 L 2.176600 6.682200 L 2.492700 5.952100 L 2.868800 5.262400 L 3.301700 4.617400 L 3.787700 4.021300 L 4.323900 3.478400 L 4.906700 2.993200 L 5.532600 2.570300 L 6.197900 2.214600 L 6.898600 1.930900 L 7.630400 1.723800 L 8.388600 1.598200 L 9.092000 1.558300 L 9.167700 1.558300 Z M 8.426500 2.265400 L 7.743400 2.382500 L 7.084100 2.572900 L 6.452000 2.832700 L 5.850600 3.158100 L 5.283400 3.545200 L 4.753700 3.990100 L 4.265200 4.488900 L 3.821200 5.037700 L 3.425100 5.632700 L 3.080500 6.270000 L 2.790800 6.945600 L 2.559400 7.655800 L 2.389900 8.396600 L 2.285700 9.164200 L 2.250100 9.954700 L 2.285700 10.744900 L 2.389900 11.512400 L 2.559400 12.253100 L 2.790800 12.963200 L 3.080500 13.638800 L 3.425100 14.276100 L 3.821200 14.871100 L 4.265200 15.420000 L 4.753700 15.918900 L 5.283400 16.363800 L 5.850600 16.751000 L 6.452000 17.076500 L 7.084100 17.336400 L 7.743400 17.526800 L 8.426500 17.644000 L 9.129900 17.683900 L 9.833300 17.644000 L 10.516400 17.526800 L 11.175700 17.336400 L 11.807800 17.076500 L 12.409100 16.751000 L 12.976400 16.363800 L 13.506000 15.918900 L 13.994500 15.420000 L 14.438600 14.871100 L 14.834600 14.276100 L 15.179200 13.638800 L 15.468900 12.963200 L 15.700200 12.253100 L 15.869700 11.512400 L 15.974000 10.744900 L 16.009500 9.954700 L 15.974000 9.164200 L 15.869700 8.396600 L 15.700200 7.655800 L 15.468900 6.945600 L 15.179200 6.270000 L 14.834600 5.632700 L 14.438600 5.037700 L 13.994500 4.488900 L 13.506000 3.990100 L 12.976400 3.545200 L 12.409100 3.158100 L 11.807800 2.832700 L 11.175700 2.572900 L 10.516400 2.382500 L 9.833300 2.265400 L 9.129900 2.225500 Z" transform="scale(1.000000,1.000000) translate(46.800000,97.200000)" fill="#272729" opacity="1.000000"></path>
        <path d="M 31.940700 1.000000 C 31.940700 10.601409 25.016532 18.380763 16.470352 18.380763 C 7.924289 18.380763 1.000000 10.601409 1.000000 1.000000 L 31.940700 1.000000 Z" transform="scale(1.000000,1.000000) translate(39.461112,77.177553)" fill="#f2ece9" opacity="1.000000"></path>
        <path d="M 33.505500 1.963300 L 33.719600 2.110300 L 33.861700 2.327600 L 33.909800 2.592500 L 33.888300 3.517100 L 33.825800 4.430000 L 33.723500 5.329800 L 33.582000 6.215400 L 33.402600 7.085600 L 33.186200 7.939500 L 32.933800 8.775700 L 32.640400 9.607000 L 31.962800 11.181000 L 31.156400 12.666500 L 30.229300 14.054400 L 29.199800 15.324300 L 28.640200 15.922800 L 28.055100 16.491000 L 27.445500 17.028000 L 26.812400 17.532700 L 26.156800 18.003800 L 25.479600 18.440200 L 24.781900 18.840500 L 24.064700 19.203600 L 23.328800 19.528500 L 22.575500 19.813700 L 21.806000 20.058000 L 21.021200 20.260300 L 20.222200 20.419600 L 19.410300 20.534400 L 18.586600 20.603600 L 17.752400 20.626200 L 16.918200 20.601500 L 16.094800 20.530100 L 15.283500 20.413200 L 14.485300 20.252000 L 13.701500 20.047800 L 12.932900 19.801700 L 12.180700 19.514800 L 11.446200 19.188500 L 10.730300 18.823900 L 10.033700 18.422200 L 9.358100 17.984700 L 8.703800 17.512500 L 8.072100 17.006900 L 7.463900 16.469000 L 6.880200 15.899800 L 6.311900 15.288600 L 5.276800 14.004400 L 4.354700 12.614100 L 3.553600 11.126400 L 2.885900 9.565000 L 2.599700 8.747100 L 2.348500 7.910500 L 2.133400 7.056400 L 1.955300 6.185800 L 1.815300 5.300000 L 1.714100 4.400000 L 1.653100 3.487100 L 1.633000 2.592500 L 1.681100 2.327600 L 1.823300 2.110300 L 2.037300 1.963300 L 2.301100 1.909200 L 33.241800 1.909200 Z M 2.301100 2.577500 L 2.321200 3.472100 L 2.380900 4.355000 L 2.479300 5.224900 L 2.615300 6.081000 L 2.788000 6.922000 L 2.996400 7.746900 L 3.239600 8.554500 L 3.516500 9.343800 L 4.167800 10.863200 L 4.942600 12.296300 L 5.833100 13.634200 L 6.831500 14.868400 L 7.368700 15.443900 L 7.930000 15.990100 L 8.514400 16.506000 L 9.120900 16.990500 L 9.748600 17.442500 L 10.396400 17.861000 L 11.063500 18.244700 L 11.748800 18.592700 L 12.451400 18.903900 L 13.170300 19.177100 L 13.904500 19.411200 L 14.653000 19.605200 L 15.415000 19.758100 L 16.189300 19.868600 L 16.975100 19.935700 L 17.771400 19.958300 L 18.567700 19.935700 L 19.353500 19.868600 L 20.127900 19.758100 L 20.889800 19.605200 L 21.638400 19.411200 L 22.372600 19.177100 L 23.091500 18.903900 L 23.794100 18.592700 L 24.479400 18.244700 L 25.146400 17.861000 L 25.794300 17.442500 L 26.422000 16.990500 L 27.028500 16.506000 L 27.612900 15.990100 L 28.174200 15.443900 L 28.711400 14.868400 L 29.709800 13.634200 L 30.600200 12.296300 L 31.375000 10.863200 L 32.026300 9.343800 L 32.303300 8.554500 L 32.546400 7.746900 L 32.754800 6.922000 L 32.927500 6.081000 L 33.063600 5.224900 L 33.161900 4.355000 L 33.221600 3.472100 L 33.241800 2.577500 Z" transform="scale(1.000000,1.000000) translate(38.160000,75.600000)" fill="#272729" opacity="1.000000"></path>
        <path d="M 72.257161 1.000000 C 111.609963 1.000000 143.513157 36.842874 143.513157 81.056605 C 143.513157 125.269026 111.609963 161.111879 72.257161 161.111879 C 32.903195 161.111879 1.000000 125.269026 1.000000 81.056605 C 1.000000 36.842874 32.903195 1.000000 72.257161 1.000000 Z" transform="scale(1.000000,1.000000) translate(231.486771,62.252595)" fill="#dff874" opacity="1.000000"></path>
        <path d="M 75.931400 2.131000 L 77.778000 2.210100 L 79.612500 2.341000 L 81.434300 2.523100 L 83.242900 2.755500 L 85.037500 3.038000 L 86.817700 3.369700 L 88.582900 3.749900 L 90.332500 4.178100 L 92.065900 4.653600 L 93.782600 5.175800 L 95.481800 5.744000 L 97.163200 6.357500 L 98.826200 7.015800 L 100.470000 7.718200 L 102.094300 8.464000 L 103.698400 9.252700 L 105.281700 10.083500 L 106.843600 10.955800 L 108.383800 11.869100 L 109.901400 12.822500 L 111.396000 13.815600 L 112.867100 14.847500 L 114.314000 15.917800 L 115.736200 17.025800 L 117.133200 18.170700 L 118.504400 19.352100 L 119.849200 20.569200 L 121.167000 21.821400 L 122.457400 23.108100 L 123.719800 24.428600 L 124.953500 25.782300 L 126.158100 27.168600 L 127.333000 28.586800 L 128.477400 30.036300 L 129.591300 31.516400 L 130.673600 33.026700 L 131.724000 34.566200 L 132.741900 36.134600 L 133.726800 37.731100 L 134.678000 39.355000 L 135.595000 41.005800 L 136.477300 42.682900 L 137.324300 44.385500 L 138.135500 46.113100 L 138.910100 47.864900 L 139.647800 49.640600 L 140.348000 51.439200 L 141.010100 53.260300 L 141.633600 55.103100 L 142.217800 56.967200 L 142.762200 58.851800 L 143.266300 60.756300 L 143.729400 62.680000 L 144.151200 64.622300 L 144.530900 66.582600 L 144.867900 68.560400 L 145.161800 70.554700 L 145.412100 72.565200 L 145.618100 74.591200 L 145.779200 76.631900 L 145.895000 78.686900 L 145.964700 80.755300 L 145.988000 82.836600 L 145.964400 84.917900 L 145.894300 86.986300 L 145.778200 89.041100 L 145.616700 91.081800 L 145.410400 93.107700 L 145.159800 95.118000 L 144.865600 97.112300 L 144.528200 99.089900 L 144.148100 101.050100 L 143.726100 102.992300 L 143.262600 104.916000 L 142.758200 106.820300 L 142.213500 108.704800 L 141.628900 110.568700 L 141.005100 112.411300 L 140.342700 114.232300 L 139.642200 116.030800 L 138.904200 117.806200 L 138.129200 119.558000 L 137.317700 121.285500 L 136.470400 122.987900 L 135.587800 124.664800 L 134.670400 126.315400 L 133.718900 127.939200 L 132.733700 129.535600 L 131.715500 131.103700 L 130.664700 132.643200 L 129.582000 134.153200 L 128.468000 135.633100 L 127.323100 137.082500 L 126.147900 138.500500 L 124.943000 139.886500 L 123.708900 141.240000 L 122.446200 142.560400 L 121.155500 143.846800 L 119.837300 145.098800 L 118.492100 146.315800 L 117.120600 147.496800 L 115.723200 148.641500 L 114.300700 149.749200 L 112.853400 150.819200 L 111.382100 151.850900 L 109.887100 152.843600 L 108.369100 153.796800 L 106.828600 154.709700 L 105.266400 155.581700 L 103.682700 156.412200 L 102.078300 157.200500 L 100.453700 157.945900 L 98.809600 158.647900 L 97.146300 159.305800 L 95.464700 159.918900 L 93.765100 160.486700 L 92.048200 161.008400 L 90.314600 161.483400 L 88.564800 161.911100 L 86.799400 162.290900 L 85.019000 162.622100 L 83.224200 162.903900 L 81.415600 163.136000 L 79.593600 163.317500 L 77.759000 163.447900 L 75.912400 163.526400 L 74.054400 163.552500 L 72.196200 163.525900 L 70.349500 163.446800 L 68.515000 163.315900 L 66.693100 163.133800 L 64.884600 162.901300 L 63.089900 162.618900 L 61.309600 162.287200 L 59.544400 161.906900 L 57.794800 161.478800 L 56.061300 161.003300 L 54.344600 160.481100 L 52.645300 159.912900 L 50.963800 159.299400 L 49.300900 158.641100 L 47.657000 157.938700 L 46.032700 157.192900 L 44.428600 156.404200 L 42.845300 155.573400 L 41.283300 154.701100 L 39.743100 153.787800 L 38.225500 152.834400 L 36.730900 151.841400 L 35.259700 150.809400 L 33.812800 149.739100 L 32.390500 148.631200 L 30.993500 147.486200 L 29.622400 146.305000 L 28.277500 145.087800 L 26.959700 143.835600 L 25.669300 142.548900 L 24.406900 141.228400 L 23.173200 139.874700 L 21.968600 138.488500 L 20.793600 137.070300 L 19.649200 135.620800 L 18.535400 134.140700 L 17.453000 132.630500 L 16.402600 131.090900 L 15.384700 129.522600 L 14.399800 127.926100 L 13.448500 126.302200 L 12.531500 124.651400 L 11.649200 122.974400 L 10.802200 121.271900 L 9.991100 119.544300 L 9.216400 117.792400 L 8.478700 116.016800 L 7.778500 114.218200 L 7.116400 112.397200 L 6.492900 110.554400 L 5.908700 108.690400 L 5.364300 106.805800 L 4.860200 104.901400 L 4.397100 102.977700 L 3.975300 101.035400 L 3.595600 99.075100 L 3.258600 97.097400 L 2.964700 95.103200 L 2.714400 93.092700 L 2.508400 91.066800 L 2.347300 89.026100 L 2.231500 86.971200 L 2.161800 84.902900 L 2.138500 82.821500 L 2.162100 80.740300 L 2.232200 78.671800 L 2.348300 76.616900 L 2.509800 74.576200 L 2.716100 72.550200 L 2.966700 70.539900 L 3.260900 68.545500 L 3.598300 66.567800 L 3.978400 64.607600 L 4.400400 62.665400 L 4.863900 60.741700 L 5.368300 58.837300 L 5.913000 56.952800 L 6.497600 55.088900 L 7.121400 53.246100 L 7.783800 51.425100 L 8.484300 49.626600 L 9.222300 47.851000 L 9.997400 46.099300 L 10.808800 44.371900 L 11.656100 42.669400 L 12.538700 40.992400 L 13.456100 39.341800 L 14.407700 37.718000 L 15.392900 36.121600 L 16.411100 34.553400 L 17.461800 33.014000 L 18.544600 31.503900 L 19.658600 30.024000 L 20.803500 28.574600 L 21.978800 27.156600 L 23.183700 25.770500 L 24.417800 24.417000 L 25.680500 23.096600 L 26.971200 21.810200 L 28.289400 20.558100 L 29.634600 19.341300 L 31.006100 18.160100 L 32.403400 17.015500 L 33.826000 15.907700 L 35.273400 14.837600 L 36.744800 13.806000 L 38.239800 12.813300 L 39.757800 11.860100 L 41.298300 10.947200 L 42.860600 10.075200 L 44.444300 9.244700 L 46.048700 8.456400 L 47.673300 7.711000 L 49.317500 7.009000 L 50.980700 6.351100 L 52.662400 5.738000 L 54.362100 5.170200 L 56.079000 4.648500 L 57.812700 4.173500 L 59.562600 3.745700 L 61.328000 3.366000 L 63.108300 3.034800 L 64.903300 2.752900 L 66.711900 2.520900 L 68.533900 2.339400 L 70.368500 2.209000 L 72.215100 2.130500 L 74.054300 2.104300 L 74.073400 2.104300 Z M 72.224700 2.798700 L 70.397000 2.876700 L 68.581400 3.006000 L 66.778300 3.185900 L 64.988400 3.415700 L 63.212200 3.695000 L 61.450300 4.023000 L 59.703200 4.399000 L 57.971500 4.822600 L 56.255700 5.293000 L 54.556500 5.809600 L 52.874300 6.371800 L 51.209700 6.978900 L 49.563400 7.630400 L 47.935800 8.325600 L 46.327500 9.063800 L 44.739100 9.844500 L 43.171100 10.667000 L 41.624100 11.530700 L 40.098600 12.435000 L 38.595300 13.379200 L 37.114600 14.362700 L 35.657100 15.384800 L 34.223400 16.445000 L 32.814100 17.542700 L 31.429700 18.677000 L 30.070800 19.847600 L 28.737800 21.053700 L 27.431500 22.294700 L 26.152300 23.569900 L 24.900800 24.878800 L 23.677600 26.220700 L 22.483200 27.595000 L 21.318100 29.001000 L 20.183100 30.438200 L 19.078500 31.905800 L 18.005000 33.403400 L 16.963100 34.930100 L 15.953400 36.485500 L 14.976400 38.068900 L 14.032700 39.679600 L 13.122900 41.317000 L 12.247500 42.980600 L 11.407100 44.669600 L 10.602300 46.383400 L 9.833500 48.121400 L 9.101400 49.883100 L 8.406500 51.667600 L 7.749400 53.474500 L 7.130600 55.303100 L 6.550700 57.152800 L 6.010300 59.022900 L 5.509900 60.912800 L 5.050100 62.821900 L 4.631400 64.749500 L 4.254400 66.695000 L 3.919700 68.657900 L 3.627800 70.637400 L 3.379200 72.632900 L 3.174600 74.643900 L 3.014500 76.669600 L 2.899400 78.709500 L 2.830000 80.762900 L 2.806700 82.829100 L 2.830000 84.895400 L 2.899400 86.948700 L 3.014500 88.988500 L 3.174600 91.014200 L 3.379200 93.025100 L 3.627800 95.020600 L 3.919700 97.000000 L 4.254400 98.962800 L 4.631400 100.908300 L 5.050100 102.835900 L 5.509900 104.745000 L 6.010300 106.634800 L 6.550700 108.504900 L 7.130600 110.354500 L 7.749400 112.183000 L 8.406500 113.989900 L 9.101400 115.774400 L 9.833500 117.536000 L 10.602300 119.274000 L 11.407100 120.987900 L 12.247500 122.676800 L 13.122900 124.340300 L 14.032700 125.977700 L 14.976400 127.588400 L 15.953400 129.171800 L 16.963100 130.727100 L 18.005000 132.253900 L 19.078500 133.751400 L 20.183100 135.219000 L 21.318100 136.656200 L 22.483200 138.062200 L 23.677600 139.436400 L 24.900800 140.778300 L 26.152300 142.087200 L 27.431500 143.362400 L 28.737800 144.603400 L 30.070800 145.809500 L 31.429700 146.980000 L 32.814100 148.114400 L 34.223400 149.212000 L 35.657100 150.272200 L 37.114600 151.294300 L 38.595300 152.277800 L 40.098600 153.222000 L 41.624100 154.126300 L 43.171100 154.990000 L 44.739100 155.812500 L 46.327500 156.593200 L 47.935800 157.331400 L 49.563400 158.026600 L 51.209700 158.678100 L 52.874300 159.285200 L 54.556500 159.847400 L 56.255700 160.364000 L 57.971500 160.834400 L 59.703200 161.257900 L 61.450300 161.634000 L 63.212200 161.962000 L 64.988400 162.241200 L 66.778300 162.471100 L 68.581400 162.651000 L 70.397000 162.780300 L 72.224700 162.858300 L 74.063900 162.884400 L 75.903000 162.858300 L 77.730600 162.780300 L 79.546200 162.651000 L 81.349300 162.471100 L 83.139100 162.241200 L 84.915300 161.962000 L 86.677200 161.634000 L 88.424200 161.257900 L 90.155900 160.834400 L 91.871600 160.364000 L 93.570800 159.847400 L 95.252900 159.285200 L 96.917400 158.678100 L 98.563800 158.026600 L 100.191300 157.331400 L 101.799600 156.593200 L 103.388000 155.812500 L 104.956000 154.990000 L 106.502900 154.126300 L 108.028400 153.222000 L 109.531700 152.277800 L 111.012400 151.294300 L 112.469800 150.272200 L 113.903400 149.212000 L 115.312700 148.114400 L 116.697100 146.980000 L 118.056100 145.809500 L 119.389000 144.603400 L 120.695300 143.362400 L 121.974500 142.087200 L 123.226000 140.778300 L 124.449200 139.436400 L 125.643600 138.062200 L 126.808600 136.656200 L 127.943600 135.219000 L 129.048200 133.751400 L 130.121700 132.253900 L 131.163600 130.727100 L 132.173300 129.171800 L 133.150300 127.588400 L 134.093900 125.977700 L 135.003700 124.340300 L 135.879100 122.676800 L 136.719500 120.987900 L 137.524400 119.274000 L 138.293100 117.536000 L 139.025200 115.774400 L 139.720100 113.989900 L 140.377200 112.183000 L 140.996000 110.354500 L 141.575900 108.504900 L 142.116300 106.634800 L 142.616700 104.745000 L 143.076500 102.835900 L 143.495200 100.908300 L 143.872200 98.962800 L 144.206900 97.000000 L 144.498800 95.020600 L 144.747400 93.025100 L 144.952000 91.014200 L 145.112100 88.988500 L 145.227200 86.948700 L 145.296600 84.895400 L 145.319900 82.829100 L 145.296600 80.762900 L 145.227200 78.709500 L 145.112100 76.669600 L 144.952000 74.643900 L 144.747400 72.632900 L 144.498800 70.637400 L 144.206900 68.657900 L 143.872200 66.695000 L 143.495200 64.749500 L 143.076500 62.821900 L 142.616700 60.912800 L 142.116300 59.022900 L 141.575900 57.152800 L 140.996000 55.303100 L 140.377200 53.474500 L 139.720100 51.667600 L 139.025200 49.883100 L 138.293100 48.121400 L 137.524400 46.383400 L 136.719500 44.669600 L 135.879100 42.980600 L 135.003700 41.317000 L 134.093900 39.679600 L 133.150300 38.068900 L 132.173300 36.485500 L 131.163600 34.930100 L 130.121700 33.403400 L 129.048200 31.905800 L 127.943600 30.438200 L 126.808600 29.001000 L 125.643600 27.595000 L 124.449200 26.220700 L 123.226000 24.878800 L 121.974500 23.569900 L 120.695300 22.294700 L 119.389000 21.053700 L 118.056100 19.847600 L 116.697100 18.677000 L 115.312700 17.542700 L 113.903400 16.445000 L 112.469800 15.384800 L 111.012400 14.362700 L 109.531700 13.379200 L 108.028400 12.435000 L 106.502900 11.530700 L 104.956000 10.667000 L 103.388000 9.844500 L 101.799600 9.063800 L 100.191300 8.325600 L 98.563800 7.630400 L 96.917400 6.978900 L 95.252900 6.371800 L 93.570800 5.809600 L 91.871600 5.293000 L 90.155900 4.822600 L 88.424200 4.399000 L 86.677200 4.023000 L 84.915300 3.695000 L 83.139100 3.415700 L 81.349300 3.185900 L 79.546200 3.006000 L 77.730600 2.876700 L 75.903000 2.798700 L 74.063900 2.772500 Z" transform="scale(1.000000,1.000000) translate(229.680000,60.480000)" fill="#272729" opacity="1.000000"></path>
        <path d="M 34.343676 43.718959 C 21.896236 46.775206 9.222328 39.031526 4.774426 25.411720 L 2.680178 19.004055 C 1.096142 14.145945 3.311789 8.770219 7.597567 7.000099 C 11.847636 5.244280 16.561636 7.701297 18.144864 12.539782 L 19.135267 16.185811 C 20.920296 21.662682 26.341263 24.485923 31.247562 22.469418 C 36.113545 20.465372 38.596156 14.448885 36.829376 9.023009 L 34.342532 1.403047 C 34.242445 1.096369 33.912698 0.928895 33.606020 1.028982 C 33.299343 1.129069 33.131868 1.458816 33.231955 1.765493 L 35.718678 9.385085 C 37.302397 14.248769 35.083492 19.626175 30.803074 21.389057 C 26.550389 23.136925 21.827789 20.677394 20.254259 15.851507 L 19.263667 12.204898 C 17.468253 6.715532 12.055608 3.894369 7.151557 5.920366 C 2.281301 7.931889 -0.197655 13.946470 1.569630 19.366591 L 3.663963 25.774514 C 8.295390 39.956287 21.559770 48.060742 34.622239 44.853486 C 34.935530 44.776563 35.127144 44.460232 35.050221 44.146941 C 34.973298 43.833651 34.656967 43.642037 34.343676 43.718959 Z" transform="scale(1.000000,1.000000) translate(272.166073,120.916611)" fill="#272729" opacity="1.000000"></path>
        <path d="M 1.917203 54.577426 C 12.672082 47.113294 17.374650 32.102235 12.975917 18.634478 L 7.352655 1.403057 C 7.252574 1.096378 6.922830 0.928897 6.616150 1.028978 C 6.309471 1.129059 6.141990 1.458803 6.242071 1.765483 L 11.865378 18.997041 C 16.106874 31.983380 11.573752 46.453554 1.251126 53.617692 C 0.986103 53.801625 0.920365 54.165575 1.104297 54.430598 C 1.288230 54.695621 1.652180 54.761359 1.917203 54.577426 Z" transform="scale(1.000000,1.000000) translate(313.313619,107.360834)" fill="#272729" opacity="1.000000"></path>
        <path d="M 1.121151 1.940269 C 5.802479 8.026321 11.980063 12.457899 18.851566 14.694547 C 19.158321 14.794395 19.487938 14.626663 19.587785 14.319908 C 19.687633 14.013153 19.519901 13.683536 19.213146 13.583688 C 12.568590 11.420910 6.586611 7.129652 2.047132 1.228014 C 1.850448 0.972311 1.483716 0.924467 1.228014 1.121151 C 0.972311 1.317835 0.924467 1.684566 1.121151 1.940269 Z" transform="scale(1.000000,1.000000) translate(271.706806,161.317371)" fill="#272729" opacity="1.000000"></path>
        <path d="M 1.559900 42.626456 C 6.313111 42.823729 11.086945 41.980817 15.655131 40.099398 C 30.202858 34.106922 39.717124 18.674259 39.854564 1.588811 C 39.857158 1.266225 39.597755 1.002614 39.275169 1.000019 C 38.952583 0.997424 38.688972 1.256828 38.686377 1.579414 C 38.552574 18.212793 29.304631 33.213464 15.210219 39.019212 C 10.798217 40.836306 6.192688 41.649501 1.608343 41.459236 C 1.286025 41.445859 1.013889 41.696306 1.000512 42.018625 C 0.987135 42.340943 1.237581 42.613079 1.559900 42.626456 Z" transform="scale(1.000000,1.000000) translate(297.898541,134.984832)" fill="#272729" opacity="1.000000"></path>
        <path d="M 1.399255 24.825399 C 11.271027 28.121984 21.836440 27.815198 31.705062 23.749903 C 41.818819 19.580112 50.197202 11.884386 55.821399 1.870245 C 55.979368 1.588973 55.879412 1.232898 55.598140 1.074928 C 55.316868 0.916958 54.960792 1.016915 54.802822 1.298187 C 49.303795 11.089457 41.123637 18.603110 31.259937 22.669804 C 21.652991 26.627305 11.376876 26.925691 1.769286 23.717327 C 1.463300 23.615146 1.132415 23.780362 1.030234 24.086348 C 0.928053 24.392334 1.093270 24.723218 1.399255 24.825399 Z" transform="scale(1.000000,1.000000) translate(285.705678,163.148578)" fill="#272729" opacity="1.000000"></path>
        <path d="M 32.707114 8.439425 C 30.894778 12.402466 27.847958 15.473611 24.068666 17.033480 C 15.884851 20.402997 6.805392 15.678274 3.780032 6.429163 L 2.139553 1.403031 C 2.039458 1.096357 1.709706 0.928891 1.403031 1.028987 C 1.096357 1.129082 0.928891 1.458834 1.028987 1.765509 L 2.669581 6.791996 C 5.898712 16.664073 15.676459 21.752168 24.513902 18.113532 C 28.576245 16.436837 31.837904 13.149138 33.769517 8.925271 C 33.903680 8.631897 33.774613 8.285309 33.481239 8.151146 C 33.187864 8.016983 32.841276 8.146050 32.707114 8.439425 Z" transform="scale(1.000000,1.000000) translate(282.416277,136.084496)" fill="#272729" opacity="1.000000"></path>
        <path d="M 17.084307 35.942978 C 17.086841 35.911948 17.090171 35.857894 17.093345 35.781095 C 17.124636 35.023850 17.079307 33.931506 16.898189 32.521541 C 16.628677 30.423446 16.105169 28.042474 15.268693 25.396197 C 12.977556 18.147959 8.727831 10.046658 2.049738 1.231428 C 1.854938 0.974287 1.488568 0.923750 1.231428 1.118550 C 0.974287 1.313350 0.923750 1.679721 1.118550 1.936861 C 7.717339 10.647409 11.904634 18.629700 14.154792 25.748296 C 14.970254 28.328090 15.478804 30.641035 15.739485 32.670383 C 15.912122 34.014320 15.954716 35.040761 15.926117 35.732863 C 15.923592 35.793969 15.921223 35.832404 15.919958 35.847893 C 15.893701 36.169419 16.133064 36.451353 16.454590 36.477610 C 16.776116 36.503867 17.058050 36.264504 17.084307 35.942978 Z" transform="scale(1.000000,1.000000) translate(301.284269,97.900818)" fill="#272729" opacity="1.000000"></path>
        <path d="M 11.372785 11.598715 C 11.308984 11.508835 11.189003 11.342210 11.018917 11.109772 C 10.736206 10.723422 10.415579 10.293181 10.063097 9.829968 C 9.055796 8.506230 7.994235 7.182315 6.926337 5.945119 C 6.205838 5.110397 5.506241 4.343414 4.835170 3.658470 C 3.763841 2.564995 2.785522 1.700802 1.914911 1.102716 C 1.649013 0.920051 1.285381 0.987524 1.102716 1.253423 C 0.920051 1.519321 0.987524 1.882953 1.253423 2.065618 C 2.052207 2.614362 2.977741 3.431927 4.000703 4.476036 C 4.653321 5.142144 5.336648 5.891290 6.041989 6.708452 C 7.092623 7.925647 8.139650 9.231436 9.133427 10.537402 C 9.481321 10.994586 9.797605 11.418999 10.076143 11.799646 C 10.242807 12.027406 10.359521 12.189494 10.420166 12.274928 C 10.606897 12.537987 10.971524 12.599862 11.234582 12.413131 C 11.497641 12.226400 11.559516 11.861773 11.372785 11.598715 Z" transform="scale(1.000000,1.000000) translate(288.612045,98.924060)" fill="#272729" opacity="1.000000"></path>
        <path d="M 20.755112 26.910749 C 20.734342 26.847958 20.693920 26.730253 20.633615 26.561286 C 20.534000 26.282177 20.414045 25.959127 20.273517 25.595784 C 19.873041 24.560331 19.387513 23.407654 18.815024 22.166926 C 17.179744 18.622864 15.174061 15.078774 12.781355 11.767929 C 9.604879 7.372565 5.985128 3.728768 1.900879 1.093376 C 1.629814 0.918470 1.268283 0.996422 1.093376 1.267486 C 0.918470 1.538551 0.996422 1.900082 1.267486 2.074988 C 5.218439 4.624370 8.737522 8.166829 11.834509 12.452203 C 14.179418 15.696910 16.148671 19.176626 17.754273 22.656371 C 18.316092 23.873975 18.792094 25.004034 19.183946 26.017191 C 19.320733 26.370862 19.437135 26.684344 19.533366 26.953970 C 19.590569 27.114244 19.628038 27.223350 19.645990 27.277621 C 19.747299 27.583897 20.077711 27.750056 20.383987 27.648747 C 20.690263 27.547438 20.856421 27.217025 20.755112 26.910749 Z" transform="scale(1.000000,1.000000) translate(279.540657,104.648972)" fill="#272729" opacity="1.000000"></path>
        <path d="M 17.747096 19.479460 C 17.689811 19.318562 17.577274 19.024523 17.408572 18.616278 C 17.129191 17.940196 16.791862 17.187964 16.395624 16.378498 C 15.264029 14.066786 13.885625 11.755124 12.251425 9.594766 C 9.285024 5.673282 5.812558 2.693788 1.806684 1.044157 C 1.508390 0.921319 1.166995 1.063554 1.044157 1.361847 C 0.921319 1.660141 1.063554 2.001536 1.361847 2.124374 C 5.152192 3.685249 8.469482 6.531597 11.319738 10.299540 C 12.905057 12.395280 14.245765 14.643723 15.346365 16.892116 C 15.731395 17.678686 16.058666 18.408489 16.328901 19.062437 C 16.489969 19.452210 16.595592 19.728184 16.646544 19.871293 C 16.754745 20.175202 17.088827 20.333855 17.392736 20.225653 C 17.696645 20.117451 17.855297 19.783369 17.747096 19.479460 Z" transform="scale(1.000000,1.000000) translate(273.666917,113.599363)" fill="#272729" opacity="1.000000"></path>
        <path d="M 39.655603 88.026564 C 18.960307 88.749181 1.661341 70.486179 1.018492 47.234717 C 0.374495 23.983788 16.631046 4.549919 37.326342 3.826395 L 117.696012 1.020704 C 138.391309 0.298470 155.689108 18.561210 156.333123 41.812138 C 156.975955 65.063469 140.720569 84.497994 120.025255 85.220611 L 39.655603 88.026564 Z" transform="scale(1.000000,1.000000) translate(170.717421,221.996544)" fill="#ffffff" opacity="1.000000"></path>
        <path d="M 123.122000 2.116400 L 125.042000 2.323700 L 126.934300 2.636600 L 128.796000 3.052500 L 130.624800 3.568600 L 132.418000 4.182300 L 134.173100 4.890900 L 135.887700 5.691600 L 137.559200 6.582000 L 139.185300 7.559200 L 140.763200 8.620600 L 142.290800 9.763500 L 143.765700 10.985300 L 145.185200 12.283400 L 146.547100 13.655100 L 147.848900 15.097800 L 149.088100 16.608800 L 150.262500 18.185600 L 151.369500 19.825600 L 152.406800 21.526200 L 153.371900 23.284700 L 154.262400 25.098600 L 155.075900 26.965200 L 155.810000 28.882000 L 156.462100 30.846300 L 157.029900 32.855700 L 157.510900 34.907400 L 157.902800 36.998800 L 158.202900 39.127400 L 158.409000 41.290300 L 158.518700 43.485100 L 158.529200 45.683400 L 158.441800 47.856500 L 158.258500 50.001700 L 157.981800 52.116000 L 157.613800 54.196800 L 157.157000 56.241400 L 156.613400 58.246700 L 155.985600 60.210300 L 155.275700 62.129300 L 154.486100 64.001000 L 153.619000 65.822500 L 152.676600 67.591100 L 151.661300 69.304200 L 150.575400 70.958800 L 149.421100 72.552200 L 148.200700 74.081700 L 146.916200 75.544600 L 145.570300 76.938000 L 144.165000 78.258900 L 142.702600 79.504900 L 141.185400 80.672800 L 139.615600 81.760000 L 137.995800 82.763600 L 136.328000 83.680900 L 134.614500 84.508800 L 132.858000 85.244600 L 131.060600 85.885300 L 129.224900 86.428300 L 127.353100 86.870600 L 125.447900 87.209400 L 123.511600 87.441800 L 121.565900 87.564900 L 41.196300 90.370900 L 41.177300 90.371300 L 39.209400 90.382900 L 37.264200 90.283800 L 35.344200 90.076500 L 33.451900 89.763600 L 31.590200 89.347800 L 29.761400 88.831700 L 27.968100 88.218000 L 26.213000 87.509400 L 24.498400 86.708700 L 22.826800 85.818400 L 21.200800 84.841200 L 19.622700 83.779800 L 18.095100 82.636800 L 16.620200 81.415000 L 15.200600 80.116900 L 13.838800 78.745200 L 12.536900 77.302500 L 11.297700 75.791500 L 10.123200 74.214600 L 9.016200 72.574600 L 7.979000 70.874000 L 7.013800 69.115400 L 6.123300 67.301500 L 5.309800 65.434900 L 4.575800 63.518100 L 3.923800 61.553700 L 3.355900 59.544300 L 2.875000 57.492500 L 2.483200 55.401100 L 2.183100 53.272500 L 1.977100 51.109400 L 1.867600 48.914600 L 1.856900 46.716400 L 1.944200 44.543300 L 2.127400 42.398300 L 2.404100 40.283900 L 2.772100 38.203200 L 3.228800 36.158700 L 3.772300 34.153200 L 4.400200 32.189700 L 5.110000 30.270800 L 5.899600 28.399200 L 6.766800 26.577800 L 7.709100 24.809000 L 8.724400 23.096100 L 9.810400 21.441500 L 10.964700 19.848000 L 12.185200 18.318600 L 13.469600 16.855800 L 14.815600 15.462500 L 16.220900 14.141400 L 17.683400 12.895500 L 19.200600 11.727500 L 20.770400 10.640300 L 22.390300 9.636700 L 24.058100 8.719400 L 25.771600 7.891500 L 27.528100 7.155800 L 29.325500 6.514900 L 31.161300 5.971900 L 33.033100 5.529500 L 34.938300 5.190700 L 36.874600 4.958200 L 38.820300 4.835000 L 119.209000 2.028900 L 121.176800 2.017300 Z M 119.213400 2.697200 L 38.843700 5.502900 L 36.916900 5.625100 L 35.018400 5.854200 L 33.150500 6.187400 L 31.315400 6.622200 L 29.515400 7.155600 L 27.752900 7.785100 L 26.030100 8.507800 L 24.349200 9.321000 L 22.712600 10.222100 L 21.122600 11.208200 L 19.581400 12.276700 L 18.091300 13.424900 L 16.654500 14.649900 L 15.273500 15.949200 L 13.950400 17.319900 L 12.687600 18.759300 L 11.487200 20.264700 L 10.351700 21.833400 L 9.283200 23.462600 L 8.284100 25.149600 L 7.356700 26.891800 L 6.503100 28.686300 L 5.725800 30.530400 L 5.027000 32.421400 L 4.408900 34.356600 L 3.873900 36.333300 L 3.424300 38.348700 L 3.062200 40.400100 L 2.790100 42.484800 L 2.610100 44.600000 L 2.524600 46.743100 L 2.535900 48.911200 L 2.644500 51.076000 L 2.848300 53.209000 L 3.144900 55.307600 L 3.531800 57.369300 L 4.006500 59.391600 L 4.566800 61.371800 L 5.210000 63.307400 L 5.933800 65.195800 L 6.735800 67.034400 L 7.613600 68.820800 L 8.564700 70.552400 L 9.586600 72.226500 L 10.677000 73.840600 L 11.833500 75.392200 L 13.053500 76.878600 L 14.334800 78.297400 L 15.674700 79.646000 L 17.071000 80.921700 L 18.521200 82.122100 L 20.022800 83.244600 L 21.573500 84.286600 L 23.170800 85.245500 L 24.812300 86.118800 L 26.495500 86.903900 L 28.218000 87.598300 L 29.977500 88.199400 L 31.771400 88.704600 L 33.597300 89.111400 L 35.452900 89.417200 L 37.335600 89.619500 L 39.243100 89.715600 L 41.173000 89.703100 L 121.542600 86.897100 L 123.469400 86.775000 L 125.367900 86.546000 L 127.235800 86.212800 L 129.070900 85.778100 L 130.870800 85.244700 L 132.633300 84.615300 L 134.356100 83.892600 L 136.037000 83.079400 L 137.673500 82.178300 L 139.263500 81.192200 L 140.804700 80.123700 L 142.294800 78.975600 L 143.731500 77.750500 L 145.112500 76.451300 L 146.435500 75.080600 L 147.698400 73.641100 L 148.898700 72.135700 L 150.034200 70.567000 L 151.102600 68.937800 L 152.101700 67.250700 L 153.029200 65.508500 L 153.882700 63.714000 L 154.660000 61.869800 L 155.358900 59.978700 L 155.976900 58.043500 L 156.512000 56.066800 L 156.961700 54.051300 L 157.323800 51.999900 L 157.596000 49.915200 L 157.776000 47.799900 L 157.861600 45.656800 L 157.850500 43.488600 L 157.741700 41.323900 L 157.537800 39.191000 L 157.241200 37.092400 L 156.854200 35.030700 L 156.379400 33.008500 L 155.819200 31.028300 L 155.175900 29.092800 L 154.452000 27.204400 L 153.650000 25.365800 L 152.772200 23.579400 L 151.821200 21.847900 L 150.799200 20.173800 L 149.708800 18.559700 L 148.552400 17.008200 L 147.332400 15.521800 L 146.051200 14.103000 L 144.711200 12.754400 L 143.315000 11.478700 L 141.864800 10.278300 L 140.363200 9.155900 L 138.812600 8.113900 L 137.215300 7.155000 L 135.573900 6.281600 L 133.890700 5.496500 L 132.168200 4.802100 L 130.408800 4.201000 L 128.614900 3.695800 L 126.789000 3.288900 L 124.933400 2.983100 L 123.050700 2.780800 L 121.143200 2.684700 Z" transform="scale(1.000000,1.000000) translate(169.200000,220.320000)" fill="#272729" opacity="1.000000"></path>
        <path d="M 1.306543 3.903019 C 1.361779 3.932866 1.471448 3.993294 1.631915 4.083535 C 1.901039 4.234881 2.213704 4.414509 2.566271 4.621648 C 3.575401 5.214527 4.700609 5.908260 5.912786 6.696655 C 9.376669 8.949550 12.840536 11.507365 16.071217 14.319595 C 23.945553 21.174015 29.144798 28.388393 30.433764 35.659492 C 31.883592 43.855808 31.067336 50.159155 28.723186 52.562863 C 26.673635 54.664486 23.702606 53.078344 21.135998 47.739158 C 18.223818 41.681028 16.273246 31.195883 16.508238 22.141332 C 16.779319 11.696214 19.772405 4.622354 25.332313 3.132084 C 37.976512 -0.259226 48.602705 5.316630 56.915723 19.847887 C 60.566255 26.224197 60.360655 32.350066 57.471413 34.946181 C 54.858781 37.293750 51.522247 35.159911 50.197257 28.760896 C 47.278494 14.664984 54.269269 5.256429 62.203591 10.806085 C 65.836645 13.346999 68.123536 16.130731 68.921617 18.563495 C 69.529054 20.415127 69.122241 21.583656 68.219805 21.617424 C 67.346701 21.646650 66.193826 19.568403 66.068984 17.340349 C 65.924175 14.755933 67.077681 13.145143 69.566483 13.233637 C 75.995010 13.463517 81.006904 19.374146 81.238382 27.774466 C 81.349223 31.777546 80.898654 34.271241 80.114751 35.563673 C 79.896677 35.923216 79.680194 36.140606 79.481305 36.254868 C 79.394559 36.304704 79.352971 36.315833 79.367768 36.315279 C 79.374732 36.315055 79.374732 36.315055 79.378971 36.314971 C 79.378929 36.314972 79.316520 36.300272 79.202703 36.235272 C 78.955612 36.094160 78.688127 35.816283 78.420351 35.351382 C 77.655992 34.024340 77.143799 31.631824 77.041364 27.932332 C 76.800592 19.194757 81.763467 13.261473 89.480181 12.993355 C 93.056848 12.869079 95.825957 13.364009 97.884162 14.257589 C 98.516796 14.532250 99.029980 14.823822 99.432801 15.111987 C 99.663420 15.276965 99.801029 15.397761 99.854288 15.454110 C 100.075879 15.688558 100.445572 15.698981 100.680020 15.477391 C 100.914468 15.255800 100.924890 14.886107 100.703300 14.651659 C 100.335780 14.262816 99.573304 13.717364 98.349398 13.185999 C 96.127781 12.221473 93.185909 11.695665 89.439614 11.825835 C 81.049438 12.117353 75.615902 18.613327 75.873585 27.964589 C 75.980913 31.840784 76.531502 34.412653 77.408042 35.934459 C 78.060072 37.066482 78.806966 37.493027 79.398707 37.483029 C 79.404208 37.482920 79.404208 37.482920 79.409142 37.482768 C 79.911699 37.463978 80.551362 37.096489 81.113605 36.169511 C 82.034467 34.651272 82.522653 31.949384 82.406161 27.742209 C 82.158695 18.761714 76.696145 12.319618 69.608113 12.066154 C 66.336840 11.949838 64.723150 14.203243 64.902589 17.405704 C 65.058522 20.188641 66.530898 22.842840 68.261190 22.784913 C 70.138929 22.714655 70.846325 20.682735 70.031637 18.199347 C 69.147697 15.504864 66.699691 12.525014 62.873150 9.848777 C 53.800110 3.502645 45.959243 14.055298 49.053299 28.997768 C 50.535199 36.154579 54.822780 38.896647 58.252216 35.815144 C 61.603206 32.804127 61.828938 26.078434 57.929646 19.267622 C 49.371554 4.307972 38.231993 -1.537263 25.029769 2.003716 C 18.810491 3.670723 15.623506 11.202845 15.340407 22.111023 C 15.100849 31.341484 17.085388 42.009215 20.083108 48.245291 C 22.945833 54.200474 26.767966 56.240995 29.559541 53.378496 C 32.231558 50.638593 33.093014 43.986188 31.584092 35.455792 C 30.238698 27.866382 24.895190 20.451827 16.838238 13.438444 C 13.563074 10.587493 10.056393 7.998062 6.549727 5.717342 C 5.322213 4.918972 4.181993 4.215983 3.158046 3.614398 C 2.799037 3.403475 2.479995 3.220183 2.204545 3.065280 C 2.038268 2.971772 1.922847 2.908175 1.861906 2.875245 C 1.578095 2.721886 1.223697 2.827638 1.070338 3.111450 C 0.916978 3.395262 1.022731 3.749660 1.306543 3.903019 Z" transform="scale(1.000000,1.000000) translate(198.427048,240.217260)" fill="#272729" opacity="1.000000"></path>
        <path d="M 75.518561 186.832779 L 92.593060 200.208989 C 100.532717 206.435648 111.467975 204.243903 117.010210 195.322470 L 177.510754 97.856061 C 183.053007 88.935948 181.102169 76.651641 173.161347 70.423653 L 89.073329 4.544709 C 81.132498 -1.681949 70.198424 0.509796 64.655471 9.431218 L 4.155398 106.897638 C -1.387555 115.817771 0.564100 128.102078 8.504231 134.330046 L 24.936953 147.205856 Z" transform="scale(1.000000,1.000000) translate(52.246027,62.572480)" fill="#f2ece9" opacity="1.000000"></path>
        <path d="M 75.742415 187.877018 L 92.816914 201.253229 C 101.033812 207.697313 112.367059 205.428169 118.090449 196.215127 L 178.591103 98.748541 C 184.287328 89.580616 182.285976 76.964103 174.105896 70.548465 L 90.017636 4.669332 C 81.799634 -1.774665 70.467582 0.494267 64.743397 9.707383 L 4.243195 107.174011 C -1.453438 116.341457 0.548014 128.958117 8.727811 135.374071 L 25.160766 148.250064 C 25.414696 148.449030 25.781842 148.404473 25.980808 148.150543 C 26.179774 147.896612 26.135217 147.529467 25.881287 147.330500 L 9.448566 134.454690 C 1.744992 128.412270 -0.151194 116.459185 5.235599 107.790356 L 65.735821 10.323697 C 71.099185 1.691325 81.636046 -0.418392 89.296976 5.588786 L 173.385187 71.467881 C 181.089004 77.509986 182.985094 89.462932 177.598683 98.132222 L 117.098008 195.598842 C 111.735416 204.231099 101.197447 206.341012 93.537594 200.333790 L 76.462854 186.957390 C 76.208906 186.758446 75.841764 186.803036 75.642821 187.056985 C 75.443877 187.310933 75.488467 187.678074 75.742415 187.877018 Z" transform="scale(1.000000,1.000000) translate(51.661954,61.988055)" fill="#272729" opacity="1.000000"></path>
        <path d="M 70.408460 163.430133 L 86.662671 176.165985 C 90.084861 178.848883 94.790364 177.907495 97.178371 174.062704 L 156.234587 78.929318 C 158.623777 75.084527 157.785861 69.799257 154.363672 67.115050 L 71.932693 2.528690 C 68.510512 -0.154208 63.805000 0.785871 61.416993 4.630641 L 2.360544 99.764048 C -0.027700 103.608839 0.809982 108.895418 4.232050 111.578316 L 19.764685 123.743799 Z" transform="scale(1.000000,1.000000) translate(63.789179,75.603976)" fill="#11b880" opacity="1.000000"></path>
        <path d="M 70.632309 164.474004 L 86.886520 177.209856 C 90.587103 180.111006 95.690259 179.090231 98.258672 174.954978 L 157.314962 79.821474 C 159.858723 75.727940 158.968873 70.110743 155.308271 67.239535 L 72.877054 2.652990 C 69.176725 -0.247969 64.073541 0.772365 61.504956 4.906465 L 2.448386 100.040066 C -0.094616 104.133998 0.795478 109.752420 4.455769 112.622084 L 19.988626 124.787741 C 20.242596 124.986656 20.609733 124.942024 20.808648 124.688054 C 21.007563 124.434083 20.962932 124.066947 20.708961 123.868032 L 5.176326 111.702549 C 1.992519 109.206448 1.207559 104.251649 3.440831 100.656344 L 62.497368 5.522798 C 64.705075 1.969526 69.013090 1.108178 72.156419 3.572464 L 154.587527 68.158925 C 157.771805 70.656526 158.556531 75.610119 156.322570 79.205108 L 97.266212 174.338723 C 95.058575 177.893111 90.750677 178.754812 87.607161 176.290386 L 71.352827 163.554438 C 71.098896 163.355472 70.731751 163.400030 70.532785 163.653961 C 70.333819 163.907893 70.378378 164.275038 70.632309 164.474004 Z" transform="scale(1.000000,1.000000) translate(63.205071,75.019889)" fill="#272729" opacity="1.000000"></path>
        <path d="M 1.223857 2.043904 L 37.956655 30.828308 C 38.210577 31.027285 38.577724 30.982744 38.776702 30.728822 C 38.975679 30.474900 38.931137 30.107752 38.677215 29.908775 L 1.944418 1.124371 C 1.690496 0.925394 1.323348 0.969935 1.124371 1.223857 C 0.925394 1.477779 0.969935 1.844927 1.223857 2.043904 Z" transform="scale(1.000000,1.000000) translate(115.095244,178.708695)" fill="#272729" opacity="1.000000"></path>
        <path d="M 11.435387 25.213988 L 2.503034 18.216261 C 0.912515 16.969873 0.522231 14.511428 1.631388 12.723703 L 7.860425 2.689243 C 8.969573 0.901517 11.158156 0.463168 12.748791 1.709556 L 21.681145 8.707284 C 23.271780 9.953671 23.662064 12.412116 22.552791 14.199841 L 16.323870 24.235631 C 15.214596 26.022027 13.026022 26.460376 11.435387 25.213988 Z" transform="scale(1.000000,1.000000) translate(85.215747,151.659206)" fill="#dffa74" opacity="1.000000"></path>
        <path d="M 12.574700 1.516600 L 13.249100 1.601600 L 13.355600 1.623900 L 13.756100 1.746800 L 14.146700 1.914900 L 14.523400 2.127700 L 14.856500 2.362600 L 23.815700 9.382500 L 24.148700 9.677200 L 24.465900 10.026700 L 24.889500 10.638800 L 24.950300 10.746900 L 25.254300 11.428500 L 25.292600 11.539600 L 25.473600 12.268600 L 25.491500 12.381500 L 25.546000 13.135900 L 25.544500 13.250400 L 25.468900 14.008200 L 25.446900 14.123900 L 25.237700 14.862800 L 25.193400 14.977700 L 24.816200 15.731300 L 18.569500 25.794400 L 18.309200 26.165700 L 18.066200 26.452600 L 17.995800 26.524100 L 17.451000 26.999900 L 17.339200 27.078900 L 16.732500 27.420300 L 16.604500 27.475600 L 15.955500 27.678900 L 15.816200 27.706700 L 15.144800 27.767700 L 15.000800 27.765200 L 14.326400 27.680200 L 14.220000 27.657900 L 13.819200 27.534900 L 13.428800 27.366900 L 13.051800 27.154000 L 12.747000 26.939900 L 12.719000 26.919100 L 3.759800 19.899300 L 3.426600 19.604500 L 3.109500 19.255100 L 2.686000 18.643000 L 2.625300 18.535000 L 2.321200 17.853400 L 2.282900 17.742200 L 2.101900 17.013100 L 2.084000 16.900100 L 2.029600 16.145700 L 2.031100 16.031300 L 2.106700 15.273600 L 2.128700 15.157900 L 2.337900 14.418900 L 2.382200 14.304100 L 2.759300 13.550400 L 9.006000 3.489000 L 9.266200 3.117300 L 9.509300 2.830100 L 9.579700 2.758600 L 10.124500 2.282600 L 10.236200 2.203600 L 10.842800 1.861900 L 10.970900 1.806500 L 11.619800 1.603100 L 11.759000 1.575300 L 12.430500 1.514100 Z M 11.819700 2.240800 L 11.170800 2.444200 L 10.564200 2.785900 L 10.019400 3.261900 L 9.776300 3.549100 L 9.556100 3.868400 L 3.327100 13.902900 L 2.980900 14.601000 L 2.771700 15.340000 L 2.696100 16.097700 L 2.750500 16.852100 L 2.931500 17.581200 L 3.235600 18.262800 L 3.659100 18.874900 L 3.914600 19.148000 L 4.198700 19.395400 L 13.131100 26.393100 L 13.435900 26.607200 L 13.752300 26.782200 L 14.077800 26.918800 L 14.410000 27.017300 L 15.084400 27.102300 L 15.755800 27.041300 L 16.404800 26.838000 L 17.011500 26.496600 L 17.556300 26.020800 L 17.799300 25.733900 L 18.019600 25.414800 L 24.248500 15.379000 L 24.594800 14.680800 L 24.804000 13.941900 L 24.879600 13.184100 L 24.825100 12.429700 L 24.644100 11.700700 L 24.340100 11.019100 L 23.916500 10.407000 L 23.660900 10.133900 L 23.376800 9.886400 L 14.444500 2.888700 L 14.139600 2.674700 L 13.823200 2.499600 L 13.497700 2.363100 L 13.165600 2.264600 L 12.491200 2.179600 Z" transform="scale(1.000000,1.000000) translate(83.520000,150.480000)" fill="#272729" opacity="1.000000"></path>
        <path d="M 1.223777 2.043841 L 22.922691 19.053585 C 23.176578 19.252607 23.543733 19.208130 23.742755 18.954243 C 23.941776 18.700355 23.897299 18.333200 23.643412 18.134178 L 1.944498 1.124434 C 1.690611 0.925412 1.323456 0.969890 1.124434 1.223777 C 0.925412 1.477664 0.969890 1.844819 1.223777 2.043841 Z" transform="scale(1.000000,1.000000) translate(152.736475,118.876843)" fill="#272729" opacity="1.000000"></path>
        <path d="M 11.435387 25.215299 L 2.503034 18.216262 C 0.912515 16.969874 0.522231 14.511429 1.631388 12.725013 L 7.860425 2.689224 C 8.969815 0.901519 11.158039 0.463170 12.749258 1.709557 L 21.680786 8.708594 C 23.272013 9.953652 23.662181 12.413427 22.552791 14.199822 L 16.324220 24.235612 C 15.214830 26.022028 13.026605 26.460357 11.435387 25.215299 Z" transform="scale(1.000000,1.000000) translate(122.528390,91.571210)" fill="#dffa74" opacity="1.000000"></path>
        <path d="M 12.447500 1.908600 L 13.121900 1.993600 L 13.228300 2.015900 L 13.628900 2.138800 L 14.019600 2.306800 L 14.396500 2.519700 L 14.729700 2.754700 L 23.687600 9.775600 L 24.020900 10.070100 L 24.338300 10.419400 L 24.762000 11.031300 L 24.822900 11.139500 L 25.127000 11.821000 L 25.165300 11.932200 L 25.346400 12.661300 L 25.364300 12.774300 L 25.418700 13.528700 L 25.417200 13.643100 L 25.341600 14.400700 L 25.319600 14.516500 L 25.110300 15.255300 L 25.065900 15.370200 L 24.688800 16.123300 L 18.442400 26.186500 L 18.182100 26.557600 L 17.939000 26.844600 L 17.868700 26.916100 L 17.323900 27.391900 L 17.212100 27.470900 L 16.605400 27.812400 L 16.477400 27.867700 L 15.828500 28.071000 L 15.689500 28.098800 L 15.018000 28.160100 L 14.873900 28.157700 L 14.199500 28.072900 L 14.093100 28.050600 L 13.692500 27.927800 L 13.301900 27.759900 L 12.925100 27.547400 L 12.620100 27.333600 L 12.591500 27.312400 L 3.632500 20.291300 L 3.299300 19.996500 L 2.982300 19.647100 L 2.558700 19.035000 L 2.497900 18.927000 L 2.193900 18.245500 L 2.155600 18.134300 L 1.974600 17.405300 L 1.956700 17.292400 L 1.902200 16.538100 L 1.903700 16.423600 L 1.979300 15.666200 L 2.001300 15.550500 L 2.210500 14.811800 L 2.254900 14.696800 L 2.631900 13.943800 L 8.878700 3.881000 L 9.138900 3.509300 L 9.382000 3.222100 L 9.452300 3.150700 L 9.997100 2.674600 L 10.109000 2.595500 L 10.715700 2.253900 L 10.843700 2.198500 L 11.492600 1.995100 L 11.631800 1.967300 L 12.303300 1.906100 Z M 11.692500 2.632800 L 11.043600 2.836200 L 10.436900 3.177800 L 9.892100 3.653900 L 9.649000 3.941100 L 9.428800 4.260400 L 3.199700 14.296200 L 2.853500 14.993900 L 2.644300 15.732600 L 2.568700 16.490000 L 2.623200 17.244300 L 2.804200 17.973300 L 3.108200 18.654800 L 3.531800 19.266900 L 3.787300 19.540000 L 4.071400 19.787400 L 13.003700 26.786500 L 13.308700 27.000300 L 13.625100 27.175100 L 13.950700 27.311500 L 14.282900 27.409900 L 14.957300 27.494700 L 15.628800 27.433400 L 16.277700 27.230100 L 16.884400 26.888600 L 17.429200 26.412800 L 17.672300 26.125800 L 17.892600 25.806800 L 24.121100 15.771000 L 24.467400 15.073200 L 24.676700 14.334400 L 24.752300 13.576800 L 24.697900 12.822400 L 24.516800 12.093300 L 24.212700 11.411800 L 23.789000 10.799900 L 23.533300 10.527000 L 23.249100 10.279800 L 14.317600 3.280700 L 14.012700 3.066700 L 13.696200 2.891600 L 13.370600 2.755100 L 13.038400 2.656600 L 12.364000 2.571600 Z" transform="scale(1.000000,1.000000) translate(120.960000,90.000000)" fill="#272729" opacity="1.000000"></path>
        <path d="M 1.223891 2.043930 L 48.632692 39.188655 C 48.886629 39.387614 49.253773 39.343045 49.452732 39.089109 C 49.651690 38.835172 49.607122 38.468028 49.353186 38.269069 L 1.944384 1.124345 C 1.690448 0.925386 1.323304 0.969954 1.124345 1.223891 C 0.925386 1.477827 0.969954 1.844971 1.223891 2.043930 Z" transform="scale(1.000000,1.000000) translate(134.219998,147.913422)" fill="#272729" opacity="1.000000"></path>
        <path d="M 11.435419 25.214063 L 2.503066 18.216335 C 0.912430 16.969948 0.522262 14.511503 1.631420 12.723797 L 7.860457 2.688008 C 8.969614 0.901592 11.158188 0.463243 12.748823 1.709630 L 21.681177 8.707358 C 23.271453 9.953745 23.661621 12.412190 22.553405 14.199916 L 16.323786 24.234396 C 15.214628 26.022101 13.026054 26.460450 11.435419 25.214063 Z" transform="scale(1.000000,1.000000) translate(104.338004,120.866498)" fill="#dffa74" opacity="1.000000"></path>
        <path d="M 12.257000 1.683900 L 12.931400 1.768900 L 13.038000 1.791300 L 13.438400 1.914200 L 13.828900 2.082200 L 14.205900 2.295100 L 14.538800 2.530000 L 23.497900 9.549800 L 23.831200 9.844700 L 24.148000 10.194000 L 24.571600 10.806100 L 24.632400 10.914200 L 24.936400 11.595800 L 24.974700 11.706900 L 25.155700 12.436000 L 25.173600 12.548900 L 25.228100 13.303300 L 25.226600 13.417700 L 25.151100 14.175400 L 25.129200 14.290900 L 24.920300 15.029900 L 24.876000 15.144800 L 24.499100 15.898800 L 18.251700 25.960100 L 17.991600 26.331700 L 17.748600 26.618900 L 17.678200 26.690400 L 17.133400 27.166500 L 17.021600 27.245600 L 16.414900 27.587300 L 16.286800 27.642700 L 15.637900 27.846100 L 15.498600 27.873900 L 14.827100 27.935000 L 14.683100 27.932500 L 14.008800 27.847600 L 13.902100 27.825300 L 13.501600 27.702300 L 13.111000 27.534200 L 12.734200 27.321300 L 12.429400 27.107300 L 12.401300 27.086500 L 3.442000 20.066600 L 3.109000 19.771900 L 2.791900 19.422500 L 2.368300 18.810400 L 2.307500 18.702300 L 2.003500 18.020600 L 1.965200 17.909500 L 1.784200 17.180500 L 1.766300 17.067600 L 1.711800 16.313200 L 1.713300 16.198600 L 1.789000 15.440900 L 1.811000 15.325400 L 2.020100 14.586400 L 2.064400 14.471400 L 2.441600 13.717800 L 8.688400 3.654900 L 8.948700 3.283500 L 9.191800 2.996500 L 9.262100 2.925000 L 9.806900 2.449300 L 9.918600 2.370400 L 10.525200 2.028900 L 10.653400 1.973500 L 11.302300 1.770300 L 11.441400 1.742500 L 12.112900 1.681400 Z M 11.502000 2.408000 L 10.853100 2.611200 L 10.246500 2.952700 L 9.701700 3.428400 L 9.458600 3.715400 L 9.238400 4.034500 L 3.009400 14.070200 L 2.663100 14.768400 L 2.454000 15.507400 L 2.378300 16.265100 L 2.432800 17.019500 L 2.613800 17.748500 L 2.917800 18.430200 L 3.341400 19.042300 L 3.596900 19.315300 L 3.881000 19.562800 L 12.813400 26.560500 L 13.118200 26.774500 L 13.434600 26.949600 L 13.760100 27.086100 L 14.092300 27.184700 L 14.766600 27.269600 L 15.438100 27.208500 L 16.087000 27.005100 L 16.693700 26.663400 L 17.238500 26.187300 L 17.481500 25.900100 L 17.701700 25.580800 L 23.931400 15.546400 L 24.277300 14.848200 L 24.486200 14.109200 L 24.561700 13.351500 L 24.507200 12.597100 L 24.326200 11.868000 L 24.022200 11.186400 L 23.598600 10.574300 L 23.343200 10.301200 L 23.059100 10.053800 L 14.126800 3.056100 L 13.821900 2.842000 L 13.505500 2.667000 L 13.180000 2.530500 L 12.847900 2.431900 L 12.173500 2.346900 Z" transform="scale(1.000000,1.000000) translate(102.960000,119.520000)" fill="#272729" opacity="1.000000"></path>
        <path d="M 1.773654 4.730083 L 9.339488 2.136979 L 8.571575 1.664980 L 11.298508 21.248025 C 11.343000 21.567539 11.638085 21.790487 11.957598 21.745995 C 12.277111 21.701503 12.500060 21.406418 12.455568 21.086905 L 9.728635 1.503860 C 9.677981 1.140093 9.308158 0.912782 8.960722 1.031862 L 1.394888 3.624966 C 1.089718 3.729560 0.927119 4.061738 1.031713 4.366908 C 1.136306 4.672078 1.468485 4.834677 1.773654 4.730083 Z" transform="scale(1.000000,1.000000) translate(109.659804,129.488018)" fill="#272729" opacity="1.000000"></path>
        <path d="M 1.773653 4.730104 L 9.339604 2.136979 L 8.571694 1.665001 L 11.299336 21.248066 C 11.343839 21.567578 11.638932 21.790516 11.958443 21.746013 C 12.277955 21.701509 12.500894 21.406416 12.456390 21.086905 L 9.728749 1.503840 C 9.678083 1.140083 9.308268 0.912785 8.960840 1.031861 L 1.394889 3.624986 C 1.089719 3.729579 0.927119 4.061757 1.031712 4.366927 C 1.136305 4.672097 1.468483 4.834697 1.773653 4.730104 Z" transform="scale(1.000000,1.000000) translate(128.370890,100.454059)" fill="#272729" opacity="1.000000"></path>
        <path d="M 1.773655 4.730083 L 9.339479 2.136979 L 8.571566 1.664981 L 11.298508 21.248026 C 11.343000 21.567539 11.638085 21.790487 11.957598 21.745995 C 12.277112 21.701503 12.500060 21.406418 12.455568 21.086905 L 9.728626 1.503860 C 9.677972 1.140093 9.308149 0.912782 8.960713 1.031862 L 1.394888 3.624966 C 1.089718 3.729560 0.927119 4.061739 1.031713 4.366908 C 1.136306 4.672078 1.468485 4.834677 1.773655 4.730083 Z" transform="scale(1.000000,1.000000) translate(90.943787,159.525417)" fill="#272729" opacity="1.000000"></path>
        <path d="M 35.713874 52.005702 L 49.205898 62.577551 C 49.909959 63.129446 50.872332 62.937993 51.362508 62.147120 L 64.498435 40.992875 C 64.988494 40.202001 64.819268 39.120654 64.115323 38.570069 L 16.572085 1.314458 C 15.868015 0.763872 14.905641 0.954016 14.415466 1.746199 L 1.280009 22.900454 C 0.789834 23.691328 0.959181 24.772674 1.663125 25.323260 L 15.770007 36.377015 Z" transform="scale(1.000000,1.000000) translate(74.076828,190.562911)" fill="#f2ece9" opacity="1.000000"></path>
        <path d="M 35.937659 53.049837 L 49.429682 63.621686 C 50.412396 64.392010 51.772682 64.120786 52.443043 63.039193 L 65.578710 41.885367 C 66.223946 40.844062 66.001231 39.431108 65.059233 38.694330 L 17.516414 1.439048 C 16.532514 0.669633 15.172565 0.940788 14.502802 2.023207 L 1.367829 23.176683 C 0.722496 24.217895 0.945269 25.630897 1.887315 26.367711 L 15.993788 37.421148 C 16.247716 37.620118 16.614862 37.575566 16.813832 37.321639 C 17.012803 37.067712 16.968251 36.700565 16.714324 36.501595 L 2.607443 25.447840 C 2.142490 25.084180 2.024364 24.334937 2.360544 23.792527 L 15.495746 2.638683 C 15.805588 2.137942 16.369841 2.025437 16.796314 2.358941 L 64.339093 39.614192 C 64.804012 39.977826 64.922113 40.727084 64.585966 41.269568 L 51.450332 62.423341 C 51.140387 62.923421 50.576060 63.035940 50.150301 62.702199 L 36.658189 52.130280 C 36.404260 51.931311 36.037114 51.975865 35.838146 52.229793 C 35.639177 52.483722 35.683730 52.850868 35.937659 53.049837 Z" transform="scale(1.000000,1.000000) translate(73.492778,189.978554)" fill="#272729" opacity="1.000000"></path>
        <path d="M 13.208691 1.000000 C 19.951413 1.000000 25.417392 7.140834 25.417392 14.716869 C 25.417392 22.291574 19.951413 28.432398 13.208691 28.432398 C 6.465979 28.432398 1.000000 22.291574 1.000000 14.716869 C 1.000000 7.140834 6.465979 1.000000 13.208691 1.000000 Z" transform="scale(1.000000,1.000000) translate(87.490653,218.501210)" fill="#f2ece9" opacity="1.000000"></path>
        <path d="M 16.380500 2.193300 L 17.665200 2.417800 L 18.903900 2.779700 L 20.089500 3.271300 L 21.215400 3.884600 L 22.275100 4.612000 L 23.262600 5.445700 L 24.171700 6.378300 L 24.996300 7.402400 L 25.730800 8.510700 L 26.368600 9.696200 L 26.903900 10.951600 L 27.330400 12.269800 L 27.642100 13.643500 L 27.832500 15.065500 L 27.895500 16.527900 L 27.827100 17.990200 L 27.631300 19.411200 L 27.314400 20.783400 L 26.882700 22.100000 L 26.342200 23.353400 L 25.699200 24.536600 L 24.959600 25.642500 L 24.129500 26.663800 L 23.215000 27.593100 L 22.221900 28.423000 L 21.156700 29.145700 L 20.025600 29.753700 L 18.835200 30.238800 L 17.592700 30.593500 L 16.305400 30.809800 L 14.981400 30.880700 L 13.658000 30.801300 L 12.373300 30.576800 L 11.134600 30.214900 L 9.949000 29.723300 L 8.823200 29.110000 L 7.763400 28.382700 L 6.776000 27.549000 L 5.866800 26.616500 L 5.042200 25.592500 L 4.307800 24.484200 L 3.669900 23.298900 L 3.134600 22.043600 L 2.708100 20.725600 L 2.396400 19.352000 L 2.206000 17.930200 L 2.143000 16.468000 L 2.211400 15.005500 L 2.407200 13.584400 L 2.724100 12.211900 L 3.155800 10.895200 L 3.696200 9.641700 L 4.339300 8.458300 L 5.078900 7.352400 L 5.908900 6.331000 L 6.823500 5.401600 L 7.816500 4.571700 L 8.881800 3.848900 L 10.012900 3.240900 L 11.203300 2.755800 L 12.445800 2.401100 L 13.733100 2.184800 L 14.981400 2.114000 L 15.057100 2.114000 Z M 13.771000 2.852000 L 12.558800 3.059800 L 11.388800 3.397800 L 10.267100 3.859000 L 9.199900 4.436600 L 8.193300 5.123700 L 7.253400 5.913300 L 6.386400 6.798600 L 5.598500 7.772700 L 4.895600 8.828600 L 4.284100 9.959600 L 3.770000 11.158600 L 3.359500 12.418900 L 3.058600 13.733500 L 2.873600 15.095500 L 2.810600 16.498000 L 2.873600 17.900300 L 3.058600 19.262100 L 3.359500 20.576500 L 3.770000 21.836700 L 4.284100 23.035600 L 4.895600 24.166400 L 5.598500 25.222300 L 6.386400 26.196300 L 7.253400 27.081500 L 8.193300 27.871100 L 9.199900 28.558100 L 10.267100 29.135700 L 11.388800 29.596900 L 12.558800 29.934900 L 13.771000 30.142700 L 15.019300 30.213600 L 16.267600 30.142700 L 17.479800 29.934900 L 18.649800 29.596900 L 19.771500 29.135700 L 20.838700 28.558100 L 21.845300 27.871100 L 22.785200 27.081500 L 23.652200 26.196300 L 24.440100 25.222300 L 25.143000 24.166400 L 25.754500 23.035600 L 26.268600 21.836700 L 26.679100 20.576500 L 26.980000 19.262100 L 27.165000 17.900300 L 27.228000 16.498000 L 27.165000 15.095500 L 26.980000 13.733500 L 26.679100 12.418900 L 26.268600 11.158600 L 25.754500 9.959600 L 25.143000 8.828600 L 24.440100 7.772700 L 23.652200 6.798600 L 22.785200 5.913300 L 21.845300 5.123700 L 20.838700 4.436600 L 19.771500 3.859000 L 18.649800 3.397800 L 17.479800 3.059800 L 16.267600 2.852000 L 15.019300 2.781200 Z" transform="scale(1.000000,1.000000) translate(85.680000,216.720000)" fill="#272729" opacity="1.000000"></path>
        <path d="M 5.656656 2.168224 C 7.567306 2.168224 9.145087 3.940522 9.145087 6.159034 C 9.145087 8.377547 7.567306 10.149844 5.656656 10.149844 C 3.746005 10.149844 2.168224 8.377547 2.168224 6.159034 C 2.168224 3.940522 3.746005 2.168224 5.656656 2.168224 Z M 5.656656 1.000000 C 3.068604 1.000000 1.000000 3.323632 1.000000 6.159034 C 1.000000 8.994437 3.068604 11.318069 5.656656 11.318069 C 8.244708 11.318069 10.313311 8.994437 10.313311 6.159034 C 10.313311 3.323632 8.244708 1.000000 5.656656 1.000000 Z" transform="scale(1.000000,1.000000) translate(95.043397,227.057715)" fill="#272729" opacity="1.000000"></path>
        <path d="M 26.727524 1.000000 C 40.935704 1.000000 52.455029 13.940521 52.455029 29.904578 C 52.455029 45.868635 40.935704 58.809136 26.727524 58.809136 C 12.518160 58.809136 1.000000 45.868635 1.000000 29.904578 C 1.000000 13.940521 12.518160 1.000000 26.727524 1.000000 Z" transform="scale(1.000000,1.000000) translate(191.073947,61.500000)" fill="#d73d56" opacity="1.000000"></path>
        <path d="M 29.822100 2.111800 L 31.166200 2.227600 L 32.490700 2.417800 L 33.793800 2.680300 L 35.074000 3.013200 L 36.329100 3.414700 L 37.557700 3.882800 L 38.758000 4.415500 L 39.928200 5.011000 L 41.066900 5.667100 L 42.172200 6.382100 L 43.242600 7.154200 L 44.276500 7.981100 L 45.272200 8.861300 L 46.228100 9.792600 L 47.142600 10.773300 L 48.014200 11.801400 L 48.841300 12.875200 L 49.622200 13.992800 L 50.355200 15.152300 L 51.038900 16.351700 L 51.671600 17.589400 L 52.251700 18.863500 L 52.777500 20.172000 L 53.247500 21.513200 L 53.660000 22.885200 L 54.013400 24.286200 L 54.306100 25.714100 L 54.536400 27.167400 L 54.702800 28.644000 L 54.803400 30.142000 L 54.836900 31.659500 L 54.802100 33.177100 L 54.700000 34.674900 L 54.532400 36.151400 L 54.300700 37.604400 L 54.006700 39.032100 L 53.652000 40.432600 L 53.238200 41.804400 L 52.766900 43.145100 L 52.239800 44.453300 L 51.658400 45.726800 L 51.024400 46.963900 L 50.339500 48.162900 L 49.605100 49.321800 L 48.822900 50.438700 L 47.994500 51.511800 L 47.121600 52.539200 L 46.205700 53.519200 L 45.248400 54.449800 L 44.251400 55.328900 L 43.216100 56.155000 L 42.144300 56.925800 L 41.037600 57.639700 L 39.897500 58.294600 L 38.726000 58.888600 L 37.524500 59.419800 L 36.294800 59.886200 L 35.038600 60.285900 L 33.757600 60.617000 L 32.453700 60.877600 L 31.128600 61.065600 L 29.784200 61.179400 L 28.422400 61.217000 L 27.060500 61.177200 L 25.716400 61.061400 L 24.391800 60.871200 L 23.088500 60.608700 L 21.808500 60.275700 L 20.553200 59.874200 L 19.324600 59.406100 L 18.124300 58.873400 L 16.954000 58.278000 L 15.815400 57.621800 L 14.710000 56.906800 L 13.639500 56.134800 L 12.605700 55.307800 L 11.610000 54.427700 L 10.654100 53.496300 L 9.739500 52.515600 L 8.868000 51.487500 L 8.041100 50.413700 L 7.260200 49.296100 L 6.527100 48.136700 L 5.843600 46.937200 L 5.210900 45.699600 L 4.630800 44.425500 L 4.105000 43.116900 L 3.635100 41.775700 L 3.222600 40.403700 L 2.869200 39.002800 L 2.576600 37.574900 L 2.346300 36.121500 L 2.179900 34.645000 L 2.079300 33.147000 L 2.045800 31.629400 L 2.080600 30.112000 L 2.182700 28.614000 L 2.350300 27.137500 L 2.582000 25.684600 L 2.875900 24.256900 L 3.230600 22.856200 L 3.644400 21.484700 L 4.115600 20.143900 L 4.642700 18.835700 L 5.224100 17.562200 L 5.858100 16.325000 L 6.542900 15.126100 L 7.277300 13.967100 L 8.059400 12.850200 L 8.887700 11.777100 L 9.760600 10.749600 L 10.676500 9.769800 L 11.633800 8.839200 L 12.630900 7.960000 L 13.666100 7.134000 L 14.738000 6.363000 L 15.844700 5.649300 L 16.984600 4.994400 L 18.156200 4.400300 L 19.357800 3.869100 L 20.587600 3.402700 L 21.843900 3.003000 L 23.124800 2.672000 L 24.428800 2.411400 L 25.754000 2.223400 L 27.098300 2.109600 L 28.422300 2.071900 L 28.460400 2.071900 Z M 27.117400 2.777600 L 25.810900 2.889200 L 24.523300 3.073000 L 23.256300 3.327200 L 22.011600 3.649900 L 20.790700 4.039400 L 19.595300 4.493800 L 18.426900 5.011300 L 17.287300 5.590200 L 16.178000 6.228500 L 15.100600 6.924400 L 14.056700 7.676300 L 13.048000 8.482100 L 12.076100 9.340200 L 11.142600 10.248700 L 10.249100 11.205700 L 9.397300 12.209500 L 8.588700 13.258300 L 7.824900 14.350200 L 7.107600 15.483500 L 6.438500 16.656200 L 5.819000 17.866700 L 5.250800 19.113000 L 4.735600 20.393400 L 4.275000 21.706000 L 3.870500 23.049000 L 3.523800 24.420700 L 3.236600 25.819100 L 3.010300 27.242500 L 2.846700 28.689100 L 2.747400 30.157100 L 2.713900 31.644500 L 2.747400 33.132000 L 2.846700 34.599900 L 3.010300 36.046500 L 3.236600 37.470000 L 3.523800 38.868400 L 3.870500 40.240000 L 4.275000 41.583100 L 4.735600 42.895700 L 5.250800 44.176100 L 5.819000 45.422400 L 6.438500 46.632800 L 7.107600 47.805600 L 7.824900 48.938800 L 8.588700 50.030700 L 9.397300 51.079500 L 10.249100 52.083300 L 11.142600 53.040400 L 12.076100 53.948900 L 13.048000 54.806900 L 14.056700 55.612800 L 15.100600 56.364600 L 16.178000 57.060600 L 17.287300 57.698900 L 18.426900 58.277700 L 19.595300 58.795200 L 20.790700 59.249600 L 22.011600 59.639100 L 23.256300 59.961900 L 24.523300 60.216100 L 25.810900 60.399900 L 27.117400 60.511500 L 28.441400 60.549100 L 29.765300 60.511500 L 31.071800 60.399900 L 32.359300 60.216100 L 33.626200 59.961900 L 34.870900 59.639100 L 36.091700 59.249600 L 37.287100 58.795200 L 38.455400 58.277700 L 39.595000 57.698900 L 40.704400 57.060600 L 41.781700 56.364600 L 42.825600 55.612800 L 43.834300 54.806900 L 44.806200 53.948900 L 45.739700 53.040400 L 46.633200 52.083300 L 47.485100 51.079500 L 48.293800 50.030700 L 49.057600 48.938800 L 49.774900 47.805600 L 50.444100 46.632800 L 51.063600 45.422400 L 51.631800 44.176100 L 52.147000 42.895700 L 52.607700 41.583100 L 53.012200 40.240000 L 53.358900 38.868400 L 53.646200 37.470000 L 53.872500 36.046500 L 54.036100 34.599900 L 54.135400 33.132000 L 54.168900 31.644500 L 54.135400 30.157100 L 54.036100 28.689100 L 53.872500 27.242500 L 53.646200 25.819100 L 53.358900 24.420700 L 53.012200 23.049000 L 52.607700 21.706000 L 52.147000 20.393400 L 51.631800 19.113000 L 51.063600 17.866700 L 50.444100 16.656200 L 49.774900 15.483500 L 49.057600 14.350200 L 48.293800 13.258300 L 47.485100 12.209500 L 46.633200 11.205700 L 45.739700 10.248700 L 44.806200 9.340200 L 43.834300 8.482100 L 42.825600 7.676300 L 41.781700 6.924400 L 40.704400 6.228500 L 39.595000 5.590200 L 38.455400 5.011300 L 37.287100 4.493800 L 36.091700 4.039400 L 34.870900 3.649900 L 33.626200 3.327200 L 32.359300 3.073000 L 31.071800 2.889200 L 29.765300 2.777600 L 28.441400 2.739900 Z" transform="scale(1.000000,1.000000) translate(189.360000,59.760000)" fill="#272729" opacity="1.000000"></path>
        <path d="M 9.598310 16.122620 L 1.274350 3.467294 C 0.463458 2.226185 1.586961 0.563892 2.860879 1.105230 L 24.872395 10.416166 C 26.155710 10.956175 26.013526 13.038342 24.676146 13.369733 L 10.988572 16.703567 C 10.462084 16.832948 9.909738 16.603217 9.588896 16.112043 L 9.598310 16.122620 Z" transform="scale(1.000000,1.000000) translate(202.088584,91.135108)" fill="#f2ece9" opacity="1.000000"></path>
        <path d="M 3.684100 2.192300 L 3.914700 2.220800 L 4.037800 2.248000 L 4.329700 2.344800 L 26.393300 11.680500 L 26.617300 11.799000 L 26.717500 11.864100 L 26.908400 12.014000 L 26.993100 12.093300 L 27.151300 12.269600 L 27.218100 12.357700 L 27.343800 12.555700 L 27.409900 12.691700 L 27.565600 13.133500 L 27.602200 13.312800 L 27.632400 13.783300 L 27.620600 13.957900 L 27.527900 14.418700 L 27.466600 14.593500 L 27.253700 15.005900 L 27.167700 15.133800 L 27.017100 15.309800 L 26.936700 15.389000 L 26.757000 15.538500 L 26.659000 15.606300 L 26.450700 15.724300 L 26.339900 15.774300 L 26.042800 15.874000 L 12.355200 19.207800 L 12.249700 19.224700 L 11.854000 19.256000 L 11.640900 19.238500 L 11.259700 19.144200 L 11.070200 19.064800 L 10.727400 18.854100 L 10.576000 18.726600 L 10.296000 18.408800 L 10.255900 18.340100 L 10.248500 18.344900 L 1.896700 5.643200 L 1.766900 5.406100 L 1.724000 5.310700 L 1.636900 5.067700 L 1.609700 4.968000 L 1.562700 4.722800 L 1.551200 4.623100 L 1.541700 4.379600 L 1.551600 4.236400 L 1.634700 3.769600 L 1.691900 3.594000 L 1.893600 3.180100 L 1.999200 3.024100 L 2.298700 2.693700 L 2.461100 2.562900 L 2.837400 2.346900 L 2.999300 2.280400 L 3.209700 2.224800 L 3.334100 2.204200 L 3.555800 2.188800 Z M 3.380500 2.870900 L 3.170100 2.926500 L 2.793800 3.142500 L 2.494300 3.472900 L 2.292600 3.886800 L 2.209500 4.353600 L 2.219000 4.597100 L 2.266000 4.842300 L 2.353100 5.085300 L 2.482900 5.322400 L 10.806800 17.977700 L 10.797400 17.967100 L 11.077400 18.284900 L 11.420200 18.495600 L 11.801400 18.589900 L 12.197100 18.558600 L 25.884700 15.224800 L 26.121400 15.142900 L 26.329700 15.024900 L 26.509400 14.875400 L 26.660000 14.699400 L 26.872900 14.287000 L 26.965600 13.826200 L 26.935400 13.355700 L 26.779700 12.913900 L 26.654000 12.715900 L 26.495800 12.539600 L 26.304900 12.389700 L 26.080900 12.271200 L 4.069400 2.960300 L 3.832800 2.884000 L 3.602200 2.855500 Z" transform="scale(1.000000,1.000000) translate(200.880000,89.280000)" fill="#272729" opacity="1.000000"></path>
        <path d="M 7.028771 19.096369 L 1.000000 16.544183 L 6.210832 1.000000 L 12.240786 3.552187 L 7.028771 19.096369 Z" transform="scale(1.000000,1.000000) translate(205.915580,76.530606)" fill="#f2ece9" opacity="1.000000"></path>
        <path d="M 7.906800 2.035200 L 13.936700 4.587300 L 14.146300 4.727500 L 14.285500 4.928100 L 14.343600 5.165200 L 14.309800 5.415100 L 9.097800 20.959300 L 8.956300 21.199300 L 8.738800 21.356100 L 8.477300 21.415200 L 8.203700 21.362200 L 2.174900 18.810000 L 1.965400 18.669800 L 1.826200 18.469200 L 1.768100 18.232100 L 1.801900 17.982300 L 7.012800 2.438200 L 7.154300 2.198100 L 7.371800 2.041400 L 7.633300 1.982200 Z M 2.435500 18.194700 L 8.464300 20.746900 L 13.676300 5.202700 L 7.646400 2.650600 Z" transform="scale(1.000000,1.000000) translate(204.480000,74.880000)" fill="#272729" opacity="1.000000"></path>
        <path d="M 7.029954 19.095060 L 1.000000 16.542873 L 6.212015 1.000000 L 12.240786 3.550857 L 7.029954 19.095060 Z" transform="scale(1.000000,1.000000) translate(217.976672,81.632341)" fill="#f2ece9" opacity="1.000000"></path>
        <path d="M 7.728900 2.096800 L 13.757700 4.647600 L 13.967300 4.787800 L 14.106500 4.988400 L 14.164700 5.225600 L 14.130900 5.475400 L 8.920100 21.019700 L 8.778600 21.259800 L 8.561100 21.416500 L 8.299600 21.475700 L 8.026100 21.422700 L 1.996100 18.870500 L 1.786500 18.730300 L 1.647300 18.529700 L 1.589200 18.292600 L 1.623000 18.042700 L 6.835000 2.499800 L 6.976500 2.259800 L 7.193900 2.103100 L 7.455400 2.043900 Z M 2.256600 18.255200 L 8.286600 20.807400 L 13.497400 5.263100 L 7.468600 2.712300 Z" transform="scale(1.000000,1.000000) translate(216.720000,79.920000)" fill="#272729" opacity="1.000000"></path>
        <path d="M 26.252266 15.791095 L 1.900927 5.485946 C 1.181705 5.180947 0.818561 4.280497 1.090036 3.473768 L 1.580085 2.012155 C 1.850395 1.204116 2.651872 0.796148 3.371095 1.101167 L 27.722451 11.406276 C 28.440490 11.709965 28.803634 12.610416 28.533343 13.418454 L 28.043275 14.880067 C 27.771801 15.686776 26.970323 16.094764 26.252266 15.791095 Z" transform="scale(1.000000,1.000000) translate(207.091232,70.720366)" fill="#f2ece9" opacity="1.000000"></path>
        <path d="M 4.314800 1.953100 L 4.461600 1.979700 L 4.802700 2.086100 L 29.218900 12.422900 L 29.471000 12.563400 L 29.585300 12.643900 L 29.800900 12.832300 L 29.890700 12.927800 L 30.066400 13.156000 L 30.132100 13.259800 L 30.264800 13.519700 L 30.308800 13.628700 L 30.395200 13.912200 L 30.419300 14.025700 L 30.456000 14.324800 L 30.460100 14.441200 L 30.444000 14.747800 L 30.427000 14.866200 L 30.338000 15.231200 L 29.825400 16.751100 L 29.699900 17.034300 L 29.638100 17.144300 L 29.470200 17.386500 L 29.386500 17.485200 L 29.183200 17.682600 L 29.079700 17.764900 L 28.848300 17.914000 L 28.726100 17.976000 L 28.473800 18.073000 L 28.336500 18.109600 L 28.070400 18.150900 L 27.923700 18.157300 L 27.651100 18.139200 L 27.504400 18.112800 L 27.232400 18.031700 L 27.162900 18.006700 L 2.746300 7.669700 L 2.493800 7.528700 L 2.379700 7.448300 L 2.163900 7.259600 L 2.074400 7.164400 L 1.898500 6.936100 L 1.832700 6.832000 L 1.700000 6.572000 L 1.656000 6.463100 L 1.569600 6.179600 L 1.545500 6.066000 L 1.508900 5.767100 L 1.504900 5.650100 L 1.521300 5.343900 L 1.538400 5.225200 L 1.627600 4.861600 L 2.139800 3.343000 L 2.264800 3.059300 L 2.326600 2.948700 L 2.494300 2.706200 L 2.578000 2.607300 L 2.781100 2.409700 L 2.885000 2.327000 L 3.116300 2.177900 L 3.238600 2.115800 L 3.491000 2.018800 L 3.628800 1.982200 L 3.895000 1.941100 L 4.041900 1.934700 Z M 3.730800 2.642600 L 3.478400 2.739600 L 3.247100 2.888700 L 3.044000 3.086300 L 2.876300 3.328800 L 2.751300 3.612500 L 2.261200 5.074100 L 2.188600 5.379700 L 2.172200 5.685900 L 2.208800 5.984800 L 2.295200 6.268300 L 2.427900 6.528300 L 2.603800 6.756600 L 2.819600 6.945300 L 3.072100 7.086300 L 27.423400 17.391400 L 27.695400 17.472500 L 27.968000 17.490600 L 28.234100 17.449300 L 28.486400 17.352300 L 28.717800 17.203200 L 28.921100 17.005800 L 29.089000 16.763600 L 29.214500 16.480400 L 29.704500 15.018800 L 29.776700 14.712800 L 29.792800 14.406200 L 29.756100 14.107100 L 29.669700 13.823600 L 29.537000 13.563700 L 29.361300 13.335500 L 29.145700 13.147100 L 28.893600 13.006600 L 4.542300 2.701500 L 4.269900 2.619900 L 3.997000 2.601500 Z" transform="scale(1.000000,1.000000) translate(205.920000,69.120000)" fill="#272729" opacity="1.000000"></path>
        <path d="M 15.465259 1.137456 L 1.207729 13.151880 C 0.961041 13.359757 0.929578 13.728256 1.137456 13.974945 C 1.345334 14.221633 1.713832 14.253096 1.960521 14.045218 L 16.218050 2.030794 C 16.464739 1.822917 16.496201 1.454418 16.288323 1.207729 C 16.080446 0.961041 15.711947 0.929578 15.465259 1.137456 Z" transform="scale(1.000000,1.000000) translate(161.509371,301.876310)" fill="#f8b6ed" opacity="1.000000"></path>
        <path d="M 19.812264 1.259867 L 1.098363 29.293278 C 0.919253 29.561584 0.991561 29.924286 1.259867 30.103395 C 1.528173 30.282505 1.890875 30.210197 2.069985 29.941891 L 20.783886 1.908480 C 20.962996 1.640174 20.890688 1.277473 20.622382 1.098363 C 20.354076 0.919253 19.991374 0.991561 19.812264 1.259867 Z" transform="scale(1.000000,1.000000) translate(163.292100,307.882416)" fill="#f8b6ed" opacity="1.000000"></path>
        <path d="M 3.679352 1.502888 L 1.005758 20.525607 C 0.960859 20.845063 1.183432 21.140432 1.502888 21.185331 C 1.822345 21.230229 2.117713 21.007656 2.162612 20.688200 L 4.836206 1.665481 C 4.881105 1.346025 4.658532 1.050657 4.339075 1.005758 C 4.019619 0.960859 3.724250 1.183432 3.679352 1.502888 Z" transform="scale(1.000000,1.000000) translate(184.677217,311.887743)" fill="#f8b6ed" opacity="1.000000"></path>
    </g>
</svg>